<svg width="64" height="42" viewBox="0 0 64 42" fill="none" xmlns="http://www.w3.org/2000/svg">
<path fill-rule="evenodd" clip-rule="evenodd" d="M17.5938 3.58211C16.9928 4.69654 15.8843 4.78212 15.4684 5.60202C15.9977 6.33237 16.6306 6.42193 17.1002 7.64979C18.2624 10.6966 17.4346 26.8857 17.7092 31.8032C18.6127 32.036 62.7423 32.0937 64 31.8151L63.9443 16.2906C63.0965 16.1673 62.0398 18.1354 61.3015 19.1484C59.5801 21.5086 58.9353 20.8439 58.4517 21.9205C59.1801 22.8459 59.8627 22.8101 60.2925 24.3763C60.5333 25.2499 60.8259 27.1862 60.5015 28.1753L55.9144 28.1514C55.4089 26.3146 55.9701 19.8867 55.7512 17.3573C54.7462 17.2877 54.0676 18.7543 53.0805 20.1454C51.6477 22.1653 50.792 21.9623 50.177 22.8817C50.8099 23.833 51.3751 23.5066 51.9462 25.025C52.2766 25.9066 52.5253 27.1942 52.2547 28.1773L47.6516 28.1594C47.0208 26.0837 47.9919 20.2867 47.3989 18.2907C46.6029 18.4419 46.4118 18.9832 45.8984 19.6837C42.4496 24.3802 43.2257 22.3404 41.9481 23.8409C42.4835 24.8797 44.7402 25.3016 43.9899 28.1753L34.4078 28.1594C33.6953 25.821 34.8794 17.9543 34.1272 16.3484C33.564 16.1155 33.174 16.9115 32.7501 17.4787C31.9978 18.4857 31.1341 19.9046 30.1729 20.6608C29.4525 21.228 29.0565 21.1723 28.7063 21.9225C29.5043 22.9335 30.0595 22.7126 30.5311 24.3444C30.8416 25.421 31.0565 27.0111 30.752 28.1793L21.1838 28.1335C20.5609 26.3623 21.15 4.11545 21.0107 0L20.2983 0.031841C20.2425 0.433833 18.9092 2.08558 18.4177 2.76618C18.3002 2.92937 18.2664 3.00499 18.0833 3.19803L17.5938 3.58211ZM6.38972 6.16919C7.40863 6.16919 8.23451 6.99506 8.23451 8.01398C8.23451 9.03289 7.40863 9.85876 6.38972 9.85876C5.37081 9.85876 4.54493 9.03289 4.54493 8.01398C4.54493 6.99506 5.37081 6.16919 6.38972 6.16919ZM9.09819 9.88662C10.1171 9.88662 10.943 10.7125 10.943 11.7314C10.943 12.7503 10.1171 13.5762 9.09819 13.5762C8.07928 13.5762 7.25341 12.7503 7.25341 11.7314C7.25341 10.7125 8.07928 9.88662 9.09819 9.88662ZM4.63051 11.4767C5.64942 11.4767 6.47529 12.3026 6.47529 13.3215C6.47529 14.3404 5.64942 15.1663 4.63051 15.1663C3.61159 15.1663 2.78572 14.3404 2.78572 13.3215C2.78572 12.3026 3.61159 11.4767 4.63051 11.4767ZM30.9033 7.87666C32.0555 7.87666 32.9889 8.81 32.9889 9.96225C32.9889 11.1145 32.0555 12.0478 30.9033 12.0478C29.751 12.0478 28.8177 11.1145 28.8177 9.96225C28.8177 8.81 29.751 7.87666 30.9033 7.87666ZM52.4557 6.13138C53.4746 6.13138 54.3004 6.95725 54.3004 7.97617C54.3004 8.99508 53.4746 9.82095 52.4557 9.82095C51.4367 9.82095 50.6109 8.99508 50.6109 7.97617C50.6109 6.95725 51.4367 6.13138 52.4557 6.13138ZM55.1641 9.84881C56.183 9.84881 57.0089 10.6747 57.0089 11.6936C57.0089 12.7125 56.183 13.5384 55.1641 13.5384C54.1452 13.5384 53.3193 12.7125 53.3193 11.6936C53.3193 10.6747 54.1452 9.84881 55.1641 9.84881ZM50.6964 11.4389C51.7154 11.4389 52.5412 12.2647 52.5412 13.2837C52.5412 14.3026 51.7154 15.1284 50.6964 15.1284C49.6775 15.1284 48.8517 14.3026 48.8517 13.2837C48.8517 12.2647 49.6775 11.4389 50.6964 11.4389ZM9.17979 18.3643C7.51012 21.0529 7.07828 20.4917 5.78275 21.7275C6.20663 23.0628 7.53798 22.1136 7.936 26.9474C8.39172 32.4838 7.70913 37.4231 2.76582 40.2868C1.33496 41.1167 0.642423 40.9754 0.312073 41.6958C2.17477 42.639 5.98972 41.2261 7.73102 39.6838C9.38675 38.2191 10.6664 35.8529 11.14 33.7116C11.6395 31.4569 11.5659 17.9643 11.2415 16.215C10.4375 16.3364 9.62158 17.7314 9.17979 18.3623V18.3643Z" fill="#0CAFAA"/>
</svg>
